<svg width="180" height="180" viewBox="0 0 180 180" fill="none" xmlns="http://www.w3.org/2000/svg">
  <rect width="180" height="180" rx="36" fill="#1D4ED8" />
  <path d="M126 60.5C118.8 55.7 109.5 53 98.8 53C74.8 53 58 67.2 58 87.4C58 106.8 73.4 121 96.2 121C108.8 121 118.9 116.8 126 110.3V94.8H97.8V105.4H112.8V105.9C108.8 108.8 103.3 110.5 97.1 110.5C83 110.5 73.5 101.6 73.5 87.2C73.5 72.9 83.4 63.6 98.6 63.6C106.3 63.6 112.7 65.8 117.7 69.5L126 60.5Z" fill="white"/>
  <path d="M40 124H140V133H40V124Z" fill="#93C5FD"/>
</svg>
